<svg xmlns="http://www.w3.org/2000/svg" xmlns:xlink="http://www.w3.org/1999/xlink" viewBox="1003.255 -14 1122.086 1169.082"><defs><style>.a{fill:rgba(204,204,204,0.05);}.b{filter:url(#a);}</style><filter id="a" x="1003.255" y="-14" width="1122.086" height="1169.082" filterUnits="userSpaceOnUse"><feOffset dy="3" input="SourceAlpha"/><feGaussianBlur stdDeviation="3" result="b"/><feFlood flood-opacity="0.161"/><feComposite operator="in" in2="b"/><feComposite in="SourceGraphic"/></filter></defs><g class="b" transform="matrix(1, 0, 0, 1, 0, 0)"><path class="a" d="M295.063,750.167s141.712,166.377,255.5,32.518c0,0,112.288-145.364-1.42-365.722,0,0-28.781-71.952-132.477-116.583l83.512-92.142s70.571,30.28,125.218,112.406c0,0,2.914-86.465-63.322-178.6l14.592-16.515,229.624-.126,13.441,15.26s-58.943,83.507-63.282,181.365c0,0,40.257-66.236,126.683-113.782l82.008,92.142s-78.857,25.984-131.686,115.639c-45.422,83.069-80.391,260.728,2.044,369.7,0,0,92.26,130.821,254.546-7.721,0,0,297.925-266.7-29.391-652.52h12.708c142.787,104.809,308.276,245.9,325.787,585.252-3.974,236.6-93.247,435.919-243.756,564.733l-860.077,1.011" transform="translate(717.19 -133.4)"/></g></svg>